<svg xmlns="http://www.w3.org/2000/svg" width="50" height="50" viewBox="0 0 50 50" fill="none">
  <circle cx="25" cy="25" r="24.5" fill="url(#paint0_linear_155_1513)" stroke="black"/>
  <g filter="url(#filter0_d_155_1513)">
    <path d="M34 26.9998C33.7348 26.9998 33.4804 27.1052 33.2929 27.2927C33.1054 27.4802 33 27.7346 33 27.9998V31.5898L28.44 26.9998C28.3467 26.903 28.2349 26.8261 28.1112 26.7735C27.9875 26.7209 27.8544 26.6938 27.72 26.6938C27.5856 26.6938 27.4525 26.7209 27.3288 26.7735C27.2051 26.8261 27.0933 26.903 27 26.9998C26.8138 27.1872 26.7092 27.4406 26.7092 27.7048C26.7092 27.969 26.8138 28.2225 27 28.4098L31.59 32.9998H28C27.7348 32.9998 27.4804 33.1052 27.2929 33.2927C27.1054 33.4802 27 33.7346 27 33.9998C27 34.265 27.1054 34.5194 27.2929 34.7069C27.4804 34.8945 27.7348 34.9998 28 34.9998H34C34.1307 34.9982 34.2598 34.9711 34.38 34.9198C34.6243 34.8183 34.8185 34.6242 34.92 34.3798C34.9712 34.2596 34.9984 34.1305 35 33.9998V27.9998C35 27.7346 34.8946 27.4802 34.7071 27.2927C34.5196 27.1052 34.2652 26.9998 34 26.9998ZM21.7 22.9998C21.8913 23.1636 22.1374 23.2493 22.3891 23.2395C22.6407 23.2298 22.8795 23.1255 23.0576 22.9474C23.2357 22.7693 23.34 22.5305 23.3497 22.2789C23.3594 22.0272 23.2738 21.7811 23.11 21.5898L16.84 15.3098C16.7466 15.2171 16.6357 15.1438 16.5139 15.094C16.3921 15.0443 16.2616 15.0191 16.13 15.0198C15.9984 15.0191 15.8679 15.0443 15.7461 15.094C15.6243 15.1438 15.5134 15.2171 15.42 15.3098C15.3263 15.4028 15.2519 15.5134 15.2011 15.6352C15.1503 15.7571 15.1242 15.8878 15.1242 16.0198C15.1242 16.1518 15.1503 16.2825 15.2011 16.4044C15.2519 16.5263 15.3263 16.6369 15.42 16.7298L21.7 22.9998ZM28 16.9998H31.59L15.29 33.2898C15.1017 33.4781 14.9959 33.7335 14.9959 33.9998C14.9959 34.2661 15.1017 34.5215 15.29 34.7098C15.4783 34.8981 15.7337 35.0039 16 35.0039C16.2663 35.0039 16.5217 34.8981 16.71 34.7098L33 18.4098V21.9998C33 22.265 33.1054 22.5194 33.2929 22.7069C33.4804 22.8945 33.7348 22.9998 34 22.9998C34.2652 22.9998 34.5196 22.8945 34.7071 22.7069C34.8946 22.5194 35 22.265 35 21.9998L35 15.9998C34.9984 15.8691 34.9712 15.74 34.92 15.6198C34.8185 15.3755 34.6243 15.1813 34.38 15.0798C34.2598 15.0286 34.1307 15.0014 34 14.9998H28C27.7348 14.9998 27.4804 15.1052 27.2929 15.2927C27.1054 15.4802 27 15.7346 27 15.9998C27 16.265 27.1054 16.5194 27.2929 16.7069C27.4804 16.8945 27.7348 16.9998 28 16.9998Z" fill="white"/>
  </g>
  <defs>
    <filter id="filter0_d_155_1513" x="10.9959" y="15" width="28.0041" height="28.0039" filterUnits="userSpaceOnUse" color-interpolation-filters="sRGB">
      <feFlood flood-opacity="0" result="BackgroundImageFix"/>
      <feColorMatrix in="SourceAlpha" type="matrix" values="0 0 0 0 0 0 0 0 0 0 0 0 0 0 0 0 0 0 127 0" result="hardAlpha"/>
      <feOffset dy="4"/>
      <feGaussianBlur stdDeviation="2"/>
      <feComposite in2="hardAlpha" operator="out"/>
      <feColorMatrix type="matrix" values="0 0 0 0 0 0 0 0 0 0 0 0 0 0 0 0 0 0 0.25 0"/>
      <feBlend mode="normal" in2="BackgroundImageFix" result="effect1_dropShadow_155_1513"/>
      <feBlend mode="normal" in="SourceGraphic" in2="effect1_dropShadow_155_1513" result="shape"/>
    </filter>
    <linearGradient id="paint0_linear_155_1513" x1="25" y1="0" x2="25" y2="50" gradientUnits="userSpaceOnUse">
      <stop offset="0.203125" stop-color="#A301F0"/>
      <stop offset="1" stop-color="#FEFBFF" stop-opacity="0"/>
    </linearGradient>
  </defs>
</svg>