<svg width="40" height="43" viewBox="0 0 40 43" fill="none" xmlns="http://www.w3.org/2000/svg">
<g id="Icon Library" clip-path="url(#clip0_185_1343)">
<g id="Vector" filter="url(#filter0_d_185_1343)">
<path d="M35 24.8119C34.569 24.8119 34.1557 24.9959 33.851 25.3236C33.5462 25.6513 33.375 26.0957 33.375 26.5592V32.832L25.965 24.8119C25.8134 24.6427 25.6317 24.5082 25.4306 24.4164C25.2296 24.3245 25.0134 24.2771 24.795 24.2771C24.5766 24.2771 24.3604 24.3245 24.1594 24.4164C23.9583 24.5082 23.7766 24.6427 23.625 24.8119C23.3223 25.1392 23.1525 25.5821 23.1525 26.0437C23.1525 26.5053 23.3223 26.9482 23.625 27.2756L31.0838 35.2957H25.25C24.819 35.2957 24.4057 35.4798 24.101 35.8075C23.7962 36.1352 23.625 36.5796 23.625 37.043C23.625 37.5064 23.7962 37.9509 24.101 38.2786C24.4057 38.6062 24.819 38.7903 25.25 38.7903H35C35.2124 38.7876 35.4221 38.7401 35.6175 38.6506C36.0146 38.4732 36.3301 38.134 36.495 37.707C36.5783 37.4969 36.6224 37.2714 36.625 37.043V26.5592C36.625 26.0957 36.4538 25.6513 36.149 25.3236C35.8443 24.9959 35.431 24.8119 35 24.8119ZM15.0125 17.8226C15.3234 18.1089 15.7232 18.2584 16.1322 18.2415C16.5412 18.2245 16.9291 18.0422 17.2185 17.731C17.5079 17.4198 17.6775 17.0026 17.6933 16.5629C17.7091 16.1231 17.57 15.6932 17.3037 15.3589L7.115 4.38579C6.96316 4.22385 6.78308 4.09572 6.5851 4.00877C6.38711 3.92182 6.17511 3.87774 5.96125 3.87907C5.74739 3.87774 5.53539 3.92182 5.3374 4.00877C5.13942 4.09572 4.95934 4.22385 4.8075 4.38579C4.65519 4.54822 4.5343 4.74148 4.4518 4.95441C4.3693 5.16733 4.32683 5.39572 4.32683 5.62638C4.32683 5.85705 4.3693 6.08543 4.4518 6.29836C4.5343 6.51128 4.65519 6.70454 4.8075 6.86697L15.0125 17.8226ZM25.25 7.33875L31.0838 7.33875L4.59625 35.8024C4.29026 36.1315 4.11835 36.5777 4.11835 37.043C4.11835 37.5083 4.29026 37.9546 4.59625 38.2836C4.90225 38.6126 5.31726 38.7975 5.75 38.7975C6.18274 38.7975 6.59775 38.6126 6.90375 38.2836L33.375 9.80245V16.0753C33.375 16.5387 33.5462 16.9831 33.851 17.3108C34.1557 17.6385 34.569 17.8226 35 17.8226C35.431 17.8226 35.8443 17.6385 36.149 17.3108C36.4538 16.9831 36.625 16.5387 36.625 16.0753V5.59143C36.6224 5.3631 36.5783 5.13752 36.495 4.92746C36.3301 4.5005 36.0146 4.16122 35.6175 3.98391C35.4221 3.89437 35.2124 3.84688 35 3.84412H25.25C24.819 3.84412 24.4057 4.02821 24.101 4.3559C23.7962 4.68358 23.625 5.12802 23.625 5.59143C23.625 6.05485 23.7962 6.49929 24.101 6.82697C24.4057 7.15466 24.819 7.33875 25.25 7.33875Z" fill="white"/>
</g>
</g>
<defs>
<filter id="filter0_d_185_1343" x="0.118408" y="3.84412" width="40.5066" height="42.9534" filterUnits="userSpaceOnUse" color-interpolation-filters="sRGB">
<feFlood flood-opacity="0" result="BackgroundImageFix"/>
<feColorMatrix in="SourceAlpha" type="matrix" values="0 0 0 0 0 0 0 0 0 0 0 0 0 0 0 0 0 0 127 0" result="hardAlpha"/>
<feOffset dy="4"/>
<feGaussianBlur stdDeviation="2"/>
<feComposite in2="hardAlpha" operator="out"/>
<feColorMatrix type="matrix" values="0 0 0 0 0 0 0 0 0 0 0 0 0 0 0 0 0 0 0.25 0"/>
<feBlend mode="normal" in2="BackgroundImageFix" result="effect1_dropShadow_185_1343"/>
<feBlend mode="normal" in="SourceGraphic" in2="effect1_dropShadow_185_1343" result="shape"/>
</filter>
<clipPath id="clip0_185_1343">
<rect width="39" height="41.9355" fill="white" transform="matrix(-1 0 0 -1 39.875 42.2849)"/>
</clipPath>
</defs>
</svg>
